<mxfile host="Electron" agent="Mozilla/5.0 (Windows NT 10.0; Win64; x64) AppleWebKit/537.36 (KHTML, like Gecko) draw.io/24.7.8 Chrome/128.0.6613.36 Electron/32.0.1 Safari/537.36" version="24.7.8">
  <diagram name="Page-1" id="31J1VQ8DtquSg8h4KqfX">
    <mxGraphModel dx="780" dy="496" grid="1" gridSize="10" guides="1" tooltips="1" connect="1" arrows="1" fold="1" page="1" pageScale="1" pageWidth="850" pageHeight="1100" math="0" shadow="0">
      <root>
        <mxCell id="0" />
        <mxCell id="1" parent="0" />
        <mxCell id="aOH6A2S2kW9HBtMT01NU-10" style="edgeStyle=orthogonalEdgeStyle;rounded=0;orthogonalLoop=1;jettySize=auto;html=1;entryX=0.5;entryY=0;entryDx=0;entryDy=0;" edge="1" parent="1" source="aOH6A2S2kW9HBtMT01NU-2" target="aOH6A2S2kW9HBtMT01NU-4">
          <mxGeometry relative="1" as="geometry" />
        </mxCell>
        <mxCell id="aOH6A2S2kW9HBtMT01NU-2" value="Start" style="strokeWidth=2;html=1;shape=mxgraph.flowchart.start_1;whiteSpace=wrap;" vertex="1" parent="1">
          <mxGeometry x="375" y="30" width="100" height="60" as="geometry" />
        </mxCell>
        <mxCell id="aOH6A2S2kW9HBtMT01NU-4" value="Input Data" style="shape=parallelogram;html=1;strokeWidth=2;perimeter=parallelogramPerimeter;whiteSpace=wrap;rounded=1;arcSize=12;size=0.23;" vertex="1" parent="1">
          <mxGeometry x="375" y="140" width="100" height="60" as="geometry" />
        </mxCell>
        <mxCell id="aOH6A2S2kW9HBtMT01NU-6" style="edgeStyle=orthogonalEdgeStyle;rounded=0;orthogonalLoop=1;jettySize=auto;html=1;" edge="1" parent="1" source="aOH6A2S2kW9HBtMT01NU-5" target="aOH6A2S2kW9HBtMT01NU-4">
          <mxGeometry relative="1" as="geometry">
            <Array as="points">
              <mxPoint x="560" y="290" />
              <mxPoint x="560" y="170" />
            </Array>
          </mxGeometry>
        </mxCell>
        <mxCell id="aOH6A2S2kW9HBtMT01NU-15" value="" style="edgeStyle=orthogonalEdgeStyle;rounded=0;orthogonalLoop=1;jettySize=auto;html=1;" edge="1" parent="1" source="aOH6A2S2kW9HBtMT01NU-5" target="aOH6A2S2kW9HBtMT01NU-14">
          <mxGeometry relative="1" as="geometry" />
        </mxCell>
        <mxCell id="aOH6A2S2kW9HBtMT01NU-5" value="Cek Validasi" style="strokeWidth=2;html=1;shape=mxgraph.flowchart.decision;whiteSpace=wrap;" vertex="1" parent="1">
          <mxGeometry x="375" y="240" width="100" height="100" as="geometry" />
        </mxCell>
        <mxCell id="aOH6A2S2kW9HBtMT01NU-7" value="T" style="text;html=1;align=center;verticalAlign=middle;resizable=0;points=[];autosize=1;strokeColor=none;fillColor=none;" vertex="1" parent="1">
          <mxGeometry x="500" y="270" width="30" height="30" as="geometry" />
        </mxCell>
        <mxCell id="aOH6A2S2kW9HBtMT01NU-8" style="edgeStyle=orthogonalEdgeStyle;rounded=0;orthogonalLoop=1;jettySize=auto;html=1;entryX=0.5;entryY=0;entryDx=0;entryDy=0;entryPerimeter=0;" edge="1" parent="1" source="aOH6A2S2kW9HBtMT01NU-4" target="aOH6A2S2kW9HBtMT01NU-5">
          <mxGeometry relative="1" as="geometry" />
        </mxCell>
        <mxCell id="aOH6A2S2kW9HBtMT01NU-14" value="Halaman Daftar&lt;div&gt;Siswa&lt;/div&gt;" style="shape=process;whiteSpace=wrap;html=1;backgroundOutline=1;strokeWidth=2;" vertex="1" parent="1">
          <mxGeometry x="365" y="400" width="120" height="60" as="geometry" />
        </mxCell>
        <mxCell id="aOH6A2S2kW9HBtMT01NU-16" value="Y" style="text;html=1;align=center;verticalAlign=middle;resizable=0;points=[];autosize=1;strokeColor=none;fillColor=none;" vertex="1" parent="1">
          <mxGeometry x="425" y="350" width="30" height="30" as="geometry" />
        </mxCell>
        <mxCell id="aOH6A2S2kW9HBtMT01NU-17" value="Selesai" style="strokeWidth=2;html=1;shape=mxgraph.flowchart.start_1;whiteSpace=wrap;" vertex="1" parent="1">
          <mxGeometry x="375" y="510" width="100" height="60" as="geometry" />
        </mxCell>
        <mxCell id="aOH6A2S2kW9HBtMT01NU-18" style="edgeStyle=orthogonalEdgeStyle;rounded=0;orthogonalLoop=1;jettySize=auto;html=1;entryX=0.5;entryY=0;entryDx=0;entryDy=0;entryPerimeter=0;" edge="1" parent="1" source="aOH6A2S2kW9HBtMT01NU-14" target="aOH6A2S2kW9HBtMT01NU-17">
          <mxGeometry relative="1" as="geometry" />
        </mxCell>
      </root>
    </mxGraphModel>
  </diagram>
</mxfile>
